<mxfile host="app.diagrams.net">
  <diagram id="flow2" name="Page-1">
    <mxGraphModel dx="1000" dy="800" grid="1" gridSize="10" guides="1" tooltips="1" connect="1" arrows="1" fold="1" page="1" pageScale="1" pageWidth="827" pageHeight="1169" math="0" shadow="0">
      <root>
        <mxCell id="0"/>
        <mxCell id="1" parent="0"/>

        <!-- ETE Request Intake -->
        <mxCell id="2" value="ETE Request Intake" style="rounded=1;whiteSpace=wrap;html=1;fillColor=#ffffff;strokeColor=#000000;" vertex="1" parent="1">
          <mxGeometry x="20" y="180" width="140" height="50" as="geometry"/>
        </mxCell>

        <!-- Signal Collectors -->
        <mxCell id="3" value="Signal Collectors&#xa;• Identity&#xa;• Approval&#xa;• Telemetry&#xa;• Context" style="rounded=1;whiteSpace=wrap;html=1;fillColor=#ffffff;strokeColor=#000000;" vertex="1" parent="1">
          <mxGeometry x="200" y="140" width="160" height="120" as="geometry"/>
        </mxCell>

        <!-- Slot Indexer -->
        <mxCell id="4" value="&#128221; Slot Indexer" style="rounded=1;whiteSpace=wrap;html=1;fillColor=#ffffff;strokeColor=#000000;" vertex="1" parent="1">
          <mxGeometry x="400" y="140" width="140" height="80" as="geometry"/>
        </mxCell>

        <!-- Executing Plan -->
        <mxCell id="5" value="&#128221; Executing Plan" style="rounded=1;whiteSpace=wrap;html=1;fillColor=#ffffff;strokeColor=#000000;" vertex="1" parent="1">
          <mxGeometry x="600" y="80" width="160" height="80" as="geometry"/>
        </mxCell>

        <!-- Override Module -->
        <mxCell id="6" value="&#11035; Override Module" style="rounded=1;whiteSpace=wrap;html=1;fillColor=#ffffff;strokeColor=#000000;" vertex="1" parent="1">
          <mxGeometry x="600" y="200" width="160" height="80" as="geometry"/>
        </mxCell>

        <!-- Marker Synthesizer -->
        <mxCell id="7" value="✏ Marker Synthesizer" style="rounded=1;whiteSpace=wrap;html=1;fillColor=#ffffff;strokeColor=#000000;" vertex="1" parent="1">
          <mxGeometry x="400" y="280" width="160" height="80" as="geometry"/>
        </mxCell>

        <!-- Drift & Conflict Manager -->
        <mxCell id="8" value="Drift &amp; Conflict Manager" style="rounded=1;whiteSpace=wrap;html=1;fillColor=#ffffff;strokeColor=#000000;" vertex="1" parent="1">
          <mxGeometry x="600" y="320" width="200" height="80" as="geometry"/>
        </mxCell>

        <!-- Executor -->
        <mxCell id="9" value="⚙ Executor" style="rounded=1;whiteSpace=wrap;html=1;fillColor=#ffffff;strokeColor=#000000;" vertex="1" parent="1">
          <mxGeometry x="820" y="140" width="140" height="80" as="geometry"/>
        </mxCell>

        <!-- Connectors -->
        <mxCell id="10" value="" style="endArrow=block;html=1;" edge="1" parent="1" source="2" target="3">
          <mxGeometry relative="1" as="geometry"/>
        </mxCell>

        <mxCell id="11" value="Signals" style="endArrow=block;html=1;" edge="1" parent="1" source="3" target="4">
          <mxGeometry relative="1" as="geometry"/>
        </mxCell>

        <mxCell id="12" value="Slot" style="endArrow=block;html=1;" edge="1" parent="1" source="4" target="5">
          <mxGeometry relative="1" as="geometry"/>
        </mxCell>

        <mxCell id="13" value="Markers" style="endArrow=block;html=1;" edge="1" parent="1" source="4" target="6">
          <mxGeometry relative="1" as="geometry"/>
        </mxCell>

        <mxCell id="14" value="Execute" style="endArrow=block;html=1;" edge="1" parent="1" source="5" target="9">
          <mxGeometry relative="1" as="geometry"/>
        </mxCell>

        <mxCell id="15" value="Overrides" style="endArrow=block;html=1;" edge="1" parent="1" source="6" target="7">
          <mxGeometry relative="1" as="geometry"/>
        </mxCell>

        <mxCell id="16" value="Overrides" style="endArrow=block;html=1;" edge="1" parent="1" source="6" target="8">
          <mxGeometry relative="1" as="geometry"/>
        </mxCell>

        <mxCell id="17" value="Overrides" style="endArrow=block;html=1;" edge="1" parent="1" source="8" target="9">
          <mxGeometry relative="1" as="geometry"/>
        </mxCell>

      </root>
    </mxGraphModel>
  </diagram>
</mxfile>